<svg width="24" height="24" viewBox="0 0 24 24" xmlns="http://www.w3.org/2000/svg">
  <path d="M19.54 5.08A10.61 10.61 0 0 0 11.91 2a10 10 0 0 0-.05 20 2.58 2.58 0 0 0 2.53-1.89 2.52 2.52 0 0 0-.57-2.28.5.5 0 0 1 .37-.83h1.65A6.15 6.15 0 0 0 22 11.33a8.48 8.48 0 0 0-2.46-6.25ZM15.88 15h-1.65a2.49 2.49 0 0 0-1.87 4.15.489.489 0 0 1 .12.49c-.05.21-.28.34-.59.36a8 8 0 0 1-7.82-9.11A8.1 8.1 0 0 1 11.92 4H12a8.47 8.47 0 0 1 6.1 2.48 6.5 6.5 0 0 1 1.9 4.77A4.17 4.17 0 0 1 15.88 15Z" fill="currentColor"/>
  <path d="M12 8a1.5 1.5 0 1 0 0-3 1.5 1.5 0 0 0 0 3ZM15.25 7.2a1.5 1.5 0 1 0 1.501 2.598A1.5 1.5 0 0 0 15.25 7.2ZM8.75 7.2a1.5 1.5 0 1 0-1.498 2.6A1.5 1.5 0 0 0 8.75 7.2ZM6.16 11.26a1.5 1.5 0 1 0 2.08.4 1.492 1.492 0 0 0-2.08-.4Z" fill="currentColor"/>
</svg>